<?xml version="1.0" standalone="no"?>
<!DOCTYPE svg PUBLIC "-//W3C//DTD SVG 20010904//EN"
 "http://www.w3.org/TR/2001/REC-SVG-20010904/DTD/svg10.dtd">
<svg version="1.0" xmlns="http://www.w3.org/2000/svg"
 width="260.000000pt" height="260.000000pt" viewBox="0 0 260.000000 260.000000"
 preserveAspectRatio="xMidYMid meet">
<metadata>
Created by potrace 1.11, written by Peter Selinger 2001-2013
</metadata>
<g transform="translate(0.000000,260.000000) scale(0.100000,-0.100000)"
fill="#000000" stroke="none">
<path d="M155 2390 c29 -56 230 -228 480 -411 204 -149 219 -160 563 -396 183
-126 184 -127 161 -143 l-22 -17 64 -46 c35 -26 69 -50 74 -54 6 -5 23 -16 38
-26 28 -18 28 -18 80 20 29 21 80 58 114 83 35 25 63 48 63 53 0 10 -180 142
-483 353 -443 307 -708 508 -774 586 l-23 26 -175 0 -174 -1 14 -27z"/>
<path d="M2075 2385 c-66 -72 -258 -220 -562 -435 -90 -62 -163 -116 -163
-119 0 -4 46 -36 102 -73 l101 -67 81 56 c326 226 613 445 726 554 44 43 90
98 90 109 0 4 -78 8 -173 8 l-173 -1 -29 -32z"/>
<path d="M936 1545 c-55 -41 -104 -79 -109 -84 -5 -5 85 -79 230 -186 214
-160 460 -350 473 -366 3 -3 39 -34 80 -70 103 -88 267 -251 333 -331 89 -107
139 -195 171 -300 5 -16 21 -18 173 -15 l168 2 -3 30 c-9 71 -97 227 -198 345
-41 49 -252 260 -324 326 -81 73 -414 337 -567 449 -140 103 -148 111 -131
125 18 14 14 19 -76 83 -52 37 -101 67 -108 66 -7 0 -58 -34 -112 -74z"/>
<path d="M894 1087 c-418 -337 -652 -591 -730 -790 -43 -110 -51 -105 145
-106 l169 -1 6 33 c9 50 67 157 129 239 53 70 202 228 297 314 67 60 297 252
320 266 11 7 20 16 20 19 0 10 -184 149 -196 149 -5 0 -77 -56 -160 -123z"/>
</g>
</svg>
