<?xml version="1.0" encoding="utf-8"?>
<!-- Generator: Adobe Illustrator 19.2.1, SVG Export Plug-In . SVG Version: 6.00 Build 0)  -->
<svg version="1.1" xmlns="http://www.w3.org/2000/svg" xmlns:xlink="http://www.w3.org/1999/xlink" x="0px" y="0px"
	 viewBox="0 0 31.8 27.2" style="enable-background:new 0 0 31.8 27.2;" xml:space="preserve">
<style type="text/css">
	.st0{fill:#CB181F;}
</style>
<g id="Layer_1">
</g>
<g id="Isolation_Mode">
	<g>
		<path class="st0" d="M0.6,2.7L15,14.2c0,0,0,0,0,0c0.1,0.1,0.3,0.2,0.4,0.2c0,0,0.1,0,0.1,0c0.1,0,0.3,0.1,0.4,0.1c0,0,0,0,0,0
			c0,0,0,0,0,0s0,0,0,0c0,0,0,0,0,0c0.1,0,0.3,0,0.4-0.1c0,0,0.1,0,0.1,0c0.1-0.1,0.3-0.1,0.4-0.2c0,0,0,0,0,0L31.2,2.7
			c0.6-0.5,0.8-1.5,0.2-2.1C31-0.1,30-0.2,29.4,0.3L15.9,11.1L2.4,0.3C1.8-0.2,0.8-0.1,0.3,0.6C-0.2,1.2-0.1,2.2,0.6,2.7z"/>
		<path class="st0" d="M29.4,13L15.9,23.8L2.4,13c-0.6-0.5-1.6-0.4-2.1,0.2c-0.5,0.6-0.4,1.6,0.2,2.1L15,26.9c0,0,0,0,0,0
			c0.1,0.1,0.3,0.2,0.4,0.2c0,0,0.1,0,0.1,0c0.1,0,0.3,0.1,0.4,0.1c0,0,0,0,0,0c0,0,0,0,0,0s0,0,0,0c0,0,0,0,0,0
			c0.1,0,0.3,0,0.4-0.1c0,0,0.1,0,0.1,0c0.1-0.1,0.3-0.1,0.4-0.2c0,0,0,0,0,0l14.4-11.5c0.6-0.5,0.8-1.5,0.2-2.1
			C31,12.6,30,12.5,29.4,13z"/>
	</g>
</g>
</svg>
