<svg id="bkg" xmlns="http://www.w3.org/2000/svg" viewBox="0 0 118.45 143.38"><defs><style>.cls-1{fill:#ededee;}</style></defs><title>ACM_Vanvoor</title><path class="cls-1" d="M118.45,143.38H0V24.93H118.45V143.38ZM3.14,140.24H115.31V28.08H3.14V140.24Z"/><polygon class="cls-1" points="75.4 82.04 46.59 73.21 75.4 64.38 75.4 61.29 43.05 71.2 43.05 75.22 75.4 85.13 75.4 82.04"/><polygon class="cls-1" points="43.05 107.03 75.4 97.12 75.4 93.18 43.05 83.26 43.05 86.36 71.73 95.15 43.05 103.94 43.05 107.03"/><path class="cls-1" d="M10.06,11.92a2.45,2.45,0,0,0,2.44-1.84L14,10.58a4,4,0,0,1-3.95,2.83c-2.68,0-4.38-2-4.38-4.84s1.69-4.84,4.38-4.84A3.87,3.87,0,0,1,14,6.56l-1.51.5a2.45,2.45,0,0,0-2.44-1.84c-1.94,0-2.87,1.42-2.87,3.35S8.12,11.92,10.06,11.92Z"/><path class="cls-1" d="M22.14,5.1c-1.14,0-2.46.6-2.46,3.7v4.41H18.19V3.91h1.49V5.49h0.19a2.72,2.72,0,0,1,2.55-1.77c1.62,0,2.74,1,3,2.89l-1.55.22A1.72,1.72,0,0,0,22.14,5.1Z"/><path class="cls-1" d="M34.78,10.26l1.42,0.69a4.07,4.07,0,0,1-4,2.46c-2.68,0-4.34-2-4.34-4.84s1.66-4.84,4.34-4.84,4.11,1.75,4.11,5.22H29.4c0.11,1.75,1,3,2.81,3A2.57,2.57,0,0,0,34.78,10.26ZM29.46,7.58h5.17c-0.15-1.49-.87-2.44-2.42-2.44A2.67,2.67,0,0,0,29.46,7.58Z"/><path class="cls-1" d="M47.3,11.83a2.46,2.46,0,0,0,.54-0.06v1.4a1.3,1.3,0,0,1-.84.24,1.8,1.8,0,0,1-1.81-1.47H45a3.32,3.32,0,0,1-2.9,1.47A2.8,2.8,0,0,1,39,10.58c0-2.31,2.16-3.05,4.62-3.05a8.1,8.1,0,0,1,1.58.13V7.34c0-1.43-.73-2.14-2.25-2.14a3.15,3.15,0,0,0-2.66,1.6L39.2,5.74a4.46,4.46,0,0,1,3.76-2c2.1,0,3.72.91,3.72,3.61v3.58C46.68,11.69,47,11.83,47.3,11.83ZM42.21,12a3.38,3.38,0,0,0,3-1.81V8.9a6.33,6.33,0,0,0-1.55-.13c-1.58,0-3.17.41-3.17,1.81C40.48,11.49,41.09,12,42.21,12Z"/><path class="cls-1" d="M52.58,5.4h-2.4V3.91h2.4L53,1.3h1.12V3.91h3.54V5.4H54.07v4.75c0,1,.22,1.77,1.42,1.77A1.82,1.82,0,0,0,57,11.17l1,1a3,3,0,0,1-2.53,1.21c-2,0-2.89-1.1-2.89-3.07V5.4Z"/><path class="cls-1" d="M68.29,10.26l1.42,0.69a4.07,4.07,0,0,1-4,2.46c-2.68,0-4.34-2-4.34-4.84S63,3.72,65.72,3.72s4.11,1.75,4.11,5.22H62.91c0.11,1.75,1,3,2.81,3A2.57,2.57,0,0,0,68.29,10.26ZM63,7.58h5.17C68,6.09,67.27,5.14,65.72,5.14A2.67,2.67,0,0,0,63,7.58Z"/><path class="cls-1" d="M72.39,8.57c0-2.87,1.51-4.84,3.84-4.84A3,3,0,0,1,79,5.49H79.2V0.19h1.49v13H79.2V11.64H79a3,3,0,0,1-2.79,1.77C73.9,13.41,72.39,11.43,72.39,8.57Zm1.56,0c0,2,1.06,3.35,2.66,3.35,1.23,0,2.36-.93,2.59-2.81V8C79,6.15,77.84,5.21,76.62,5.21,75,5.21,74,6.52,74,8.57Z"/><path class="cls-1" d="M95.56,11.45H95.37V13H93.88V0h1.49V5.31h0.19a3,3,0,0,1,2.79-1.77c2.33,0,3.84,2,3.84,4.84s-1.51,4.84-3.84,4.84A3,3,0,0,1,95.56,11.45ZM95.37,7.84V8.92c0.22,1.88,1.36,2.81,2.59,2.81,1.6,0,2.66-1.3,2.66-3.35S99.56,5,98,5C96.73,5,95.6,6,95.37,7.84Z"/><path class="cls-1" d="M108,14.06l0.28-1-3.5-9.31h1.62l2.72,7.34h0.17L112,3.72h1.62l-4.21,11.15a2.68,2.68,0,0,1-2.74,2.07,3.93,3.93,0,0,1-1.3-.2l0.39-1.47a2.15,2.15,0,0,0,.86.17C107.19,15.44,107.64,15.18,108,14.06Z"/></svg>