<svg id="top" xmlns="http://www.w3.org/2000/svg" viewBox="0 0 31.8 27.19"><defs><style>.cls-1{fill:#cd181f;}</style></defs><title>arrow</title><path class="cls-1" d="M15.9,14.52A1.5,1.5,0,0,1,15,14.19L0.56,2.67A1.5,1.5,0,0,1,2.44.33l14.4,11.52A1.5,1.5,0,0,1,15.9,14.52Z"/><path class="cls-1" d="M15.9,14.52A1.5,1.5,0,0,1,15,11.85L29.36,0.33a1.5,1.5,0,0,1,1.88,2.34L16.84,14.19A1.5,1.5,0,0,1,15.9,14.52Z"/><path class="cls-1" d="M15.9,27.19A1.5,1.5,0,0,1,15,26.86L0.56,15.34A1.5,1.5,0,0,1,2.44,13l14.4,11.52A1.5,1.5,0,0,1,15.9,27.19Z"/><path class="cls-1" d="M15.9,27.19A1.5,1.5,0,0,1,15,24.52L29.36,13a1.5,1.5,0,0,1,1.88,2.34L16.84,26.86A1.5,1.5,0,0,1,15.9,27.19Z"/></svg>