<?xml version="1.0" encoding="utf-8"?>
<!-- Generator: Adobe Illustrator 19.2.1, SVG Export Plug-In . SVG Version: 6.00 Build 0)  -->
<svg version="1.1" id="Layer_1" xmlns="http://www.w3.org/2000/svg" xmlns:xlink="http://www.w3.org/1999/xlink" x="0px" y="0px"
	 viewBox="0 0 100 100" style="enable-background:new 0 0 100 100;" xml:space="preserve">
<style type="text/css">
	.st0{fill:#C4C5C6;}
	.st1{fill:none;}
</style>
<title>examination</title>
<g>
	<path class="st0" d="M82,90.5H18c-0.9,0-1.7-0.8-1.7-1.7l0,0V11.2c0-0.9,0.8-1.7,1.7-1.7l0,0h64c0.9,0,1.7,0.8,1.7,1.7l0,0v77.5
		C83.7,89.7,82.9,90.5,82,90.5L82,90.5z M19.7,87.1h60.7V12.9H19.7V87.1z"/>
	<path class="st0" d="M50,71.9c-6.5,0-11.8-5.3-11.8-11.8S43.5,48.3,50,48.3s11.8,5.3,11.8,11.8l0,0C61.8,66.6,56.5,71.9,50,71.9z
		 M50,51.7c-4.7,0-8.4,3.8-8.4,8.4s3.8,8.4,8.4,8.4s8.4-3.8,8.4-8.4S54.6,51.7,50,51.7L50,51.7z"/>
	<path class="st0" d="M46.6,85.4c-0.4,0-0.9-0.2-1.2-0.5l-6-6l-9.1,3c-0.9,0.3-1.8-0.2-2.1-1.1c-0.2-0.5-0.1-1,0.1-1.4l10.1-16.8
		c0.6-0.7,1.6-0.9,2.4-0.3c0.6,0.5,0.8,1.3,0.5,2l-7.8,13l5.8-1.9c0.6-0.2,1.2,0,1.7,0.4l4.6,4.6l2.7-10.6c0.3-0.9,1.2-1.4,2.1-1.1
		c0.8,0.2,1.3,1,1.2,1.8v0.1l-3.4,13.5C48.1,84.9,47.4,85.5,46.6,85.4L46.6,85.4z"/>
	<path class="st0" d="M53.4,85.4c-0.8,0-1.5-0.5-1.6-1.3l-3.4-13.5c-0.3-0.9,0.2-1.8,1.1-2.1c0.9-0.3,1.8,0.2,2.1,1.1v0.1l2.7,10.6
		l4.6-4.6c0.5-0.5,1.1-0.6,1.7-0.4l5.8,1.9l-7.8-12.9c-0.4-0.9,0.1-1.9,0.9-2.2c0.7-0.3,1.5-0.1,2,0.5l10.1,16.9
		c0.5,0.8,0.2,1.8-0.6,2.3c-0.4,0.3-0.9,0.3-1.4,0.1l-9.1-3l-6,6C54.2,85.3,53.8,85.4,53.4,85.4L53.4,85.4L53.4,85.4z"/>
	<path class="st0" d="M63.5,23h-27c-0.9-0.1-1.6-0.9-1.6-1.8c0.1-0.8,0.7-1.5,1.6-1.6h27c0.9,0.1,1.6,0.9,1.6,1.8
		C65,22.3,64.3,22.9,63.5,23z"/>
	<path class="st0" d="M63.5,43.3h-27c-0.9-0.1-1.6-0.9-1.6-1.8c0.1-0.8,0.7-1.5,1.6-1.6h27c0.9,0.1,1.6,0.9,1.6,1.8
		C65,42.5,64.3,43.2,63.5,43.3z"/>
	<path class="st0" d="M73.6,33.1H26.4c-0.9,0.1-1.7-0.6-1.8-1.6c-0.1-0.9,0.6-1.7,1.6-1.8c0.1,0,0.2,0,0.3,0h47.2
		c0.9,0.1,1.6,0.9,1.6,1.8C75.1,32.4,74.4,33.1,73.6,33.1z"/>
</g>
<rect class="st1" width="100" height="100"/>
</svg>
