<?xml version="1.0" encoding="utf-8"?>
<!-- Generator: Adobe Illustrator 19.2.1, SVG Export Plug-In . SVG Version: 6.00 Build 0)  -->
<svg version="1.1" id="Layer_1" xmlns="http://www.w3.org/2000/svg" xmlns:xlink="http://www.w3.org/1999/xlink" x="0px" y="0px"
	 viewBox="0 0 100 100" style="enable-background:new 0 0 100 100;" xml:space="preserve">
<style type="text/css">
	.st0{fill:#C4C5C6;}
	.st1{fill:none;}
</style>
<title>parking</title>
<path class="st0" d="M50,91.7C27,91.7,8.3,73,8.3,50S27,8.3,50,8.3S91.7,27,91.7,50S73,91.7,50,91.7L50,91.7z M50,11.9
	c-21.1-0.1-38.2,17-38.3,38.1c-0.1,21.1,17,38.2,38.1,38.3c21.1,0.1,38.2-17,38.3-38.1l0,0c0-0.1,0-0.1,0-0.2C88,29,71,11.9,50,11.9
	L50,11.9L50,11.9z"/>
<path class="st0" d="M64.1,40.4c-0.1-5.2-4.4-9.3-9.5-9.2h-14v39.9h4.7V54.7h9.4c5.1,0.1,9.3-4,9.4-9.1l0,0v-5
	C64.1,40.5,64.1,40.5,64.1,40.4z M59.4,45.6c-0.2,2.5-2.3,4.5-4.9,4.4h-9.2V35.9h9.2c2.6,0,4.8,2.1,4.9,4.7V45.6z"/>
<rect class="st1" width="100" height="100"/>
</svg>
