<?xml version="1.0" encoding="utf-8"?>
<!-- Generator: Adobe Illustrator 19.2.1, SVG Export Plug-In . SVG Version: 6.00 Build 0)  -->
<svg version="1.1" id="Layer_1" xmlns="http://www.w3.org/2000/svg" xmlns:xlink="http://www.w3.org/1999/xlink" x="0px" y="0px"
	 viewBox="0 0 100 100" style="enable-background:new 0 0 100 100;" xml:space="preserve">
<style type="text/css">
	.st0{fill:#C4C5C6;}
	.st1{fill:none;}
</style>
<title>fireroom</title>
<g>
	<path class="st0" d="M64.8,27.8c0-0.6-0.4-1-1-1.2h-7.2c-0.6,0-1.2,0.5-1.2,1.2c0,0.6,0.5,1.2,1.2,1.2h7.2
		C64.4,28.9,64.8,28.4,64.8,27.8z"/>
	<path class="st0" d="M81.6,25.8c0.1-3.3-2.5-6-5.8-6.2c-0.8-1.5-2.4-2.4-4.1-2.4c-2.6,0.1-4.8,2-5.1,4.6h-6.9
		c-0.6,0-1.2,0.5-1.2,1.2c0,0.6,0.5,1.2,1.2,1.2h7.2v-0.1c0.6,1.5,1.9,2.7,3.5,3c0.6,0.1,1.1-0.2,1.3-0.8c0.1-0.6-0.2-1.1-0.8-1.3
		c-1.6-0.4-2.5-2-2.1-3.5c0.4-1.6,2-2.5,3.5-2.1c0.9,0.2,1.6,0.8,2,1.7l0.2,0.7l0.7-0.1h0.5c2.2,0,3.9,1.8,3.8,4c0,0,0,0,0,0.1
		c0,1.3-0.7,2.6-1.9,3.3L77,29.3l0.1,0.7c0.3,1.4-0.1,2.8-1.2,3.7c-0.7,0.7-1.8,1.1-2.8,1c-1.7-0.1-3.2-1.2-3.7-2.8
		c-0.1-0.2-0.2-0.3-0.3-0.5c-0.2-0.3-0.6-0.5-0.9-0.5h-8.8c-0.6,0-1.2,0.5-1.2,1.2c0,0.6,0.5,1.2,1.2,1.2h8.5c0.9,2.2,3,3.6,5.3,3.6
		l0.1-0.1c3.3,0,5.9-2.7,5.9-5.9c0-0.1,0-0.2,0-0.2v-0.4C80.8,29.3,81.6,27.6,81.6,25.8z"/>
	<path class="st0" d="M46.8,39.6v-4.8c0.1-0.1,0.1-0.1,0.1-0.2v-1.5H33.1l-0.2,1.4v5.1c-3.2,0.1-5.8,2.8-5.8,6v42.1h25.6V45.6
		C52.7,42.3,50.1,39.6,46.8,39.6z M49.1,84.2H30.6V45.6c0-1.3,1.5-2.1,2.8-2.1h3v-7h7v7h3.5c1.2-0.1,2.2,0.7,2.3,1.9v0.1v38.7H49.1
		L49.1,84.2z"/>
	<path class="st0" d="M40.6,26.1l-15.3-9.5c-0.9-0.5-2-0.2-2.6,0.6l0,0c-0.5,0.9-0.2,2.1,0.7,2.7l10.2,6.3h-9.1
		c-0.9,0-1.7,0.7-1.7,1.6c0,0.1,0,0.1,0,0.2c0,0.9,0.7,1.7,1.7,1.7c0,0,0,0,0.1,0h23.6l5.7,3.4v-11l-5.8,4L40.6,26.1L40.6,26.1z"/>
</g>
<rect class="st1" width="100" height="100"/>
</svg>
