<?xml version="1.0" encoding="utf-8"?>
<!-- Generator: Adobe Illustrator 19.2.1, SVG Export Plug-In . SVG Version: 6.00 Build 0)  -->
<svg version="1.1" id="Layer_1" xmlns="http://www.w3.org/2000/svg" xmlns:xlink="http://www.w3.org/1999/xlink" x="0px" y="0px"
	 viewBox="0 0 100 100" style="enable-background:new 0 0 100 100;" xml:space="preserve">
<style type="text/css">
	.st0{fill:#C4C5C6;}
	.st1{fill:none;}
</style>
<title>classroom</title>
<g>
	<path class="st0" d="M78.8,20.1c0.7,0,1.2-0.6,1.2-1.3l0,0v-5.6c0-0.7-0.5-1.2-1.2-1.2H51.3V8.2C51.3,7.5,50.7,7,50,7
		s-1.3,0.6-1.3,1.3l0,0V12H21.2c-0.7,0-1.2,0.6-1.2,1.2l0,0v5.6c0,0.7,0.6,1.3,1.3,1.3h1.2v34.5h-1.3c-0.7,0-1.2,0.6-1.2,1.3V60
		c0,0.7,0.6,1.3,1.3,1.3h27.5c0,0,0,0.1,0,0.2v5.2c-1.9,0.7-3,2.8-2.3,4.8c0.7,1.9,2.8,3,4.8,2.3c1.9-0.7,3-2.8,2.3-4.8
		c-0.4-1.1-1.2-1.9-2.3-2.3v-5.1c0,0,0-0.1,0-0.2h27.5c0.7,0,1.2-0.6,1.2-1.3l0,0v-4.2c0-0.7-0.6-1.3-1.3-1.3h-1.2V20.1H78.8
		L78.8,20.1z M50,71.3c-0.7,0-1.2-0.5-1.2-1.2s0.5-1.2,1.2-1.2s1.2,0.5,1.2,1.2l0,0C51.2,70.8,50.7,71.3,50,71.3L50,71.3z
		 M77.5,58.8h-55v-1.7h55.1L77.5,58.8C77.5,58.8,77.5,58.8,77.5,58.8z M22.5,14.5h55.1v3.1H22.5V14.5z M75,54.6H24.9V20.1H75V54.6
		L75,54.6L75,54.6z"/>
	<path class="st0" d="M32.5,63.9c-0.6-0.3-1.4,0.1-1.6,0.7l0,0L20.3,91.3c-0.3,0.6,0,1.4,0.7,1.7c0.6,0.3,1.4,0,1.7-0.7l0,0l0,0
		l10.6-26.8C33.5,64.9,33.2,64.2,32.5,63.9L32.5,63.9L32.5,63.9L32.5,63.9z"/>
	<path class="st0" d="M69.1,64.6c-0.3-0.6-1-0.9-1.7-0.7c-0.6,0.3-0.9,1-0.7,1.7l0,0l10.6,26.7c0.3,0.6,1,0.9,1.7,0.7s0.9-1,0.7-1.7
		l0,0l0,0L69.1,64.6z"/>
	<path class="st0" d="M50,75.5c-0.7,0-1.3,0.6-1.3,1.3l0,0v15c0,0.7,0.6,1.3,1.3,1.3s1.3-0.6,1.3-1.3v-15C51.3,76,50.7,75.5,50,75.5
		L50,75.5z"/>
</g>
<rect class="st1" width="100" height="100"/>
</svg>
