<?xml version="1.0" encoding="utf-8"?>
<!-- Generator: Adobe Illustrator 19.2.1, SVG Export Plug-In . SVG Version: 6.00 Build 0)  -->
<svg version="1.1" id="Layer_1" xmlns="http://www.w3.org/2000/svg" xmlns:xlink="http://www.w3.org/1999/xlink" x="0px" y="0px"
	 viewBox="0 0 100 100" style="enable-background:new 0 0 100 100;" xml:space="preserve">
<style type="text/css">
	.st0{fill:#C4C5C6;}
	.st1{fill:none;}
</style>
<title>catering</title>
<g>
	<path class="st0" d="M47.5,16.4c-0.1-0.8-0.9-1.3-1.7-1.2c-0.7,0.1-1.3,0.8-1.2,1.5c0,0,1.7,20.1,1.7,20.3s1,4.2-4.8,6.3
		c-0.6,0.2-1,0.7-1,1.3l0,0v40.9c-0.2,1.5-1.7,2.6-3.2,2.4c-1.2-0.2-2.2-1.1-2.4-2.4V45c0-0.7-0.5-1.3-1.1-1.5l0,0
		c-6.4-1.9-5.6-6.4-5.6-6.1s1.6-20.6,1.6-20.6c0.1-0.8-0.4-1.5-1.2-1.7c-0.8-0.1-1.5,0.4-1.7,1.2c0,0.1,0,0.1,0,0.2l-1.6,20
		c-0.3,2.6,0.2,7,6.6,9.5v39.5c0.1,3,2.7,5.4,5.7,5.3l0,0c3,0.1,5.6-2.2,5.9-5.2V45.5c5.4-2.5,5.8-6.7,5.6-9L47.5,16.4z"/>
	<path class="st0" d="M34,38.4c0.8,0,1.5-0.6,1.5-1.3c0-0.1,0-0.1,0-0.2V14.4c0-0.8-0.7-1.5-1.5-1.5s-1.5,0.7-1.5,1.5V37
		C32.5,37.7,33.1,38.4,34,38.4z"/>
	<path class="st0" d="M40.3,38.4c0.8,0,1.5-0.6,1.5-1.4c0,0,0,0,0-0.1V14.4c0-0.8-0.7-1.5-1.5-1.5s-1.5,0.7-1.5,1.5V37
		C38.8,37.7,39.5,38.4,40.3,38.4z"/>
	<path class="st0" d="M70.7,21.4c0-1.9-0.3-5.9-2.7-6.8s-4.9,2.1-6.4,4.2c-1,1.3-2.1,2.9-4.8,9.9c-0.2,0.5-4.6,11.8-1.7,20
		c0.8,2.1,3.1,4.8,4,5.8v31.3c0.1,3,2.7,5.4,5.7,5.3l0,0c3.1,0,5.6-2.3,5.9-5.4V21.4L70.7,21.4L70.7,21.4z M67.7,85.7
		c-0.2,1.5-1.7,2.6-3.2,2.4c-1.2-0.2-2.2-1.1-2.4-2.4V53.9c0-0.4-0.2-0.7-0.4-1l0,0c-1.5-1.5-2.7-3.2-3.7-5.1
		c-2.5-7.2,1.6-17.9,1.6-18c4.5-11.1,7.2-12.6,7.5-12.4c0.5,1.3,0.7,2.6,0.6,4C67.7,21.4,67.7,85.7,67.7,85.7z"/>
</g>
<rect class="st1" width="100" height="100"/>
</svg>
